<svg width="180" height="74" viewBox="0 0 180 74" fill="none" xmlns="http://www.w3.org/2000/svg">
<path d="M77.6492 29.4357C77.6391 28.7218 77.7703 28.0129 78.0352 27.3499C78.2774 26.7491 78.6444 26.2067 79.112 25.7585C79.5836 25.3137 80.1414 24.9704 80.7509 24.7496C82.0925 24.2801 83.5538 24.2801 84.8954 24.7496C85.5048 24.9705 86.0625 25.3138 86.534 25.7585C87.0016 26.2067 87.3686 26.7492 87.6108 27.3499C88.1255 28.6928 88.1255 30.1786 87.6108 31.5216C87.3686 32.1223 87.0016 32.6647 86.534 33.1129C86.0626 33.5577 85.5049 33.9011 84.8954 34.1218C83.5538 34.5913 82.0925 34.5913 80.7509 34.1218C80.1413 33.9012 79.5835 33.5578 79.112 33.1129C78.6444 32.6647 78.2774 32.1223 78.0352 31.5216C77.7703 30.8585 77.6391 30.1496 77.6492 29.4357ZM79.8433 29.4357C79.8383 29.858 79.9094 30.2778 80.0533 30.6749C80.1857 31.0376 80.3908 31.3695 80.656 31.6501C80.9213 31.9281 81.242 32.1472 81.5974 32.2935C82.3857 32.6006 83.2605 32.6006 84.0488 32.2935C84.4041 32.1472 84.7248 31.928 84.9902 31.6501C85.2553 31.3694 85.4604 31.0376 85.5929 30.6749C85.8729 29.8748 85.8729 29.0033 85.5929 28.2031C85.4614 27.838 85.2563 27.5038 84.9902 27.2213C84.7247 26.9435 84.404 26.7243 84.0488 26.5777C83.2605 26.2707 82.3857 26.2707 81.5974 26.5777C81.2421 26.7242 80.9214 26.9434 80.656 27.2213C80.3898 27.5037 80.1846 27.8379 80.0533 28.2031C79.9106 28.5982 79.8395 29.0156 79.8433 29.4357Z" fill="black"/>
<path d="M90.1096 24.6412H93.6717C94.1445 24.6389 94.6164 24.6843 95.0802 24.7766C95.4931 24.855 95.8866 25.0138 96.2382 25.2439C96.572 25.47 96.8424 25.7777 97.0239 26.1377C97.2325 26.5796 97.3323 27.0649 97.3151 27.5531C97.3303 28.0369 97.2377 28.5181 97.0441 28.9617C96.8781 29.3233 96.6216 29.6359 96.2992 29.8691C95.9613 30.1045 95.5787 30.2682 95.175 30.35C94.712 30.4479 94.2397 30.4956 93.7665 30.4922H92.2225V34.2304H90.1096V24.6412ZM92.2225 28.7044H93.6311C93.8153 28.7049 93.9991 28.6868 94.1796 28.6502C94.3471 28.6176 94.5076 28.5557 94.6537 28.4674C94.7945 28.3805 94.911 28.2593 94.9923 28.1152C95.0838 27.9424 95.1282 27.7485 95.121 27.5531C95.1311 27.3434 95.0715 27.1363 94.9516 26.964C94.8382 26.8146 94.6891 26.6959 94.5181 26.6187C94.3317 26.5346 94.1326 26.4819 93.929 26.4629C93.722 26.4409 93.514 26.4295 93.3059 26.4289H92.2225L92.2225 28.7044Z" fill="black"/>
<path d="M99.4009 24.6411H105.916V26.5914H101.514V28.3793H105.672V30.3295H101.514V32.28H106.159V34.2303H99.4009V24.6411Z" fill="black"/>
<path d="M108.53 24.6411H111.401L115.478 31.3048H115.505V24.6411H117.618V34.2303H114.855L110.669 27.4041H110.642V34.2303H108.53L108.53 24.6411Z" fill="black"/>
<path d="M123.983 24.6411H126.394L128.764 30.9255H128.791L131.202 24.6411H133.464L129.509 34.2303H127.816L123.983 24.6411Z" fill="black"/>
<path d="M134.628 29.4357C134.618 28.7218 134.75 28.0129 135.015 27.3499C135.257 26.7492 135.624 26.2067 136.091 25.7585C136.563 25.3137 137.121 24.9703 137.73 24.7496C139.072 24.2801 140.533 24.2801 141.875 24.7496C142.484 24.9705 143.042 25.3138 143.514 25.7585C143.981 26.2068 144.348 26.7492 144.59 27.3499C145.105 28.6928 145.105 30.1786 144.59 31.5216C144.348 32.1222 143.981 32.6646 143.514 33.1129C143.042 33.5577 142.484 33.9011 141.875 34.1218C140.533 34.5913 139.072 34.5913 137.73 34.1218C137.121 33.9012 136.563 33.5578 136.091 33.1129C135.624 32.6647 135.257 32.1223 135.015 31.5216C134.75 30.8585 134.618 30.1497 134.628 29.4357ZM136.823 29.4357C136.818 29.858 136.889 30.2779 137.033 30.6749C137.165 31.0377 137.37 31.3696 137.636 31.6501C137.901 31.9281 138.221 32.1472 138.577 32.2935C139.365 32.6006 140.24 32.6006 141.028 32.2935C141.384 32.1472 141.704 31.9281 141.97 31.6501C142.235 31.3693 142.44 31.0375 142.572 30.6749C142.852 29.8748 142.852 29.0033 142.572 28.2031C142.441 27.838 142.236 27.5039 141.97 27.2213C141.704 26.9434 141.383 26.7242 141.028 26.5777C140.24 26.2707 139.365 26.2707 138.577 26.5777C138.221 26.7242 137.901 26.9434 137.636 27.2213C137.369 27.5036 137.164 27.8379 137.033 28.2031C136.89 28.5982 136.819 29.0156 136.823 29.4357Z" fill="black"/>
<path d="M147.062 24.6411H149.175V34.2303H147.062V24.6411Z" fill="black"/>
<path d="M158.047 27.1332C157.841 26.8818 157.579 26.6824 157.281 26.5509C156.95 26.4097 156.592 26.3405 156.232 26.3477C155.858 26.3437 155.487 26.4195 155.145 26.5702C154.803 26.7209 154.497 26.9429 154.248 27.2214C153.992 27.5083 153.795 27.8416 153.665 28.2032C153.385 29.0034 153.385 29.8749 153.665 30.675C153.795 31.033 153.99 31.3637 154.241 31.6503C154.48 31.9221 154.772 32.1412 155.101 32.2936C155.434 32.448 155.797 32.5267 156.164 32.5239C156.565 32.5319 156.961 32.4387 157.316 32.253C157.649 32.0725 157.933 31.8119 158.141 31.4946L159.902 32.8084C159.514 33.3628 158.979 33.7988 158.358 34.068C157.752 34.3353 157.097 34.4736 156.435 34.4743C155.729 34.4817 155.027 34.3625 154.363 34.1221C153.753 33.9016 153.195 33.5582 152.724 33.1132C152.256 32.665 151.889 32.1226 151.647 31.5219C151.132 30.179 151.132 28.6931 151.647 27.3502C151.889 26.7495 152.256 26.2071 152.724 25.7588C153.195 25.314 153.753 24.9706 154.363 24.7499C155.027 24.5096 155.729 24.3903 156.435 24.3978C156.719 24.399 157.002 24.4239 157.282 24.4722C157.578 24.5227 157.868 24.602 158.148 24.7092C158.438 24.8203 158.713 24.9658 158.968 25.1427C159.234 25.3276 159.472 25.5513 159.672 25.8064L158.047 27.1332Z" fill="black"/>
<path d="M161.812 24.6411H168.326V26.5914H163.925V28.3793H168.083V30.3295H163.925V32.28H168.57V34.2303H161.812V24.6411Z" fill="black"/>
<path d="M86.0872 36.8745H88.9585L93.0353 43.5382H93.0625V36.8745H95.1754V46.4638H92.4124L88.2272 39.6375H88.2002V46.4638H86.0872V36.8745Z" fill="black"/>
<path d="M97.884 36.8745H104.399V38.8248H99.9969V40.6127H104.155V42.563H99.9969V44.5135H104.643V46.4638H97.884V36.8745Z" fill="black"/>
<path d="M108.868 38.7436H106.132V36.8745H113.717V38.7436H110.981V46.4638H108.868L108.868 38.7436Z" fill="black"/>
<path d="M114.462 36.8745H116.764L118.295 43.0235H118.322L120.326 36.8745H122.29L124.282 43.1861H124.309L125.92 36.8745H128.06L125.256 46.4638H123.374L121.261 39.827H121.234L119.121 46.4637H117.306L114.462 36.8745Z" fill="black"/>
<path d="M129.171 41.6691C129.161 40.9552 129.292 40.2463 129.557 39.5833C129.799 38.9826 130.166 38.4402 130.634 37.9919C131.105 37.5471 131.663 37.2037 132.272 36.983C133.614 36.5135 135.075 36.5135 136.417 36.983C137.026 37.2039 137.584 37.5472 138.056 37.9919C138.523 38.4402 138.89 38.9826 139.133 39.5833C139.647 40.9262 139.647 42.412 139.133 43.755C138.89 44.3556 138.523 44.898 138.056 45.3463C137.584 45.7911 137.027 46.1345 136.417 46.3552C135.075 46.8248 133.614 46.8248 132.272 46.3552C131.663 46.1347 131.105 45.7913 130.634 45.3463C130.166 44.8981 129.799 44.3557 129.557 43.755C129.292 43.092 129.161 42.3831 129.171 41.6691ZM131.365 41.6691C131.36 42.0915 131.431 42.5113 131.575 42.9083C131.707 43.2711 131.912 43.603 132.178 43.8836C132.443 44.1615 132.764 44.3807 133.119 44.5269C133.907 44.834 134.782 44.834 135.57 44.5269C135.926 44.3807 136.247 44.1615 136.512 43.8836C136.777 43.6028 136.982 43.2709 137.115 42.9083C137.395 42.1082 137.395 41.2367 137.115 40.4365C136.983 40.0715 136.778 39.7373 136.512 39.4547C136.246 39.1768 135.926 38.9576 135.57 38.8111C134.782 38.5042 133.907 38.5042 133.119 38.8111C132.764 38.9576 132.443 39.1768 132.178 39.4547C131.911 39.737 131.706 40.0713 131.575 40.4365C131.432 40.8316 131.361 41.249 131.365 41.6691Z" fill="black"/>
<path d="M141.631 36.8746H145.342C145.809 36.8724 146.274 36.9201 146.731 37.0168C147.141 37.1002 147.532 37.2611 147.882 37.4909C148.216 37.7171 148.486 38.0248 148.668 38.3848C148.875 38.822 148.975 39.3027 148.959 39.7865C148.977 40.4046 148.792 41.0115 148.43 41.5134C148.053 42.0032 147.499 42.3263 146.886 42.4141L149.324 46.4638H146.792L144.787 42.6309H143.744V46.4638H141.631L141.631 36.8746ZM143.744 40.843H144.99C145.18 40.843 145.381 40.8362 145.593 40.8228C145.79 40.8124 145.984 40.7713 146.169 40.7008C146.337 40.6354 146.485 40.5253 146.595 40.3824C146.718 40.204 146.778 39.9894 146.765 39.7729C146.775 39.5682 146.723 39.3652 146.616 39.1906C146.52 39.0494 146.389 38.9351 146.236 38.8587C146.07 38.7782 145.892 38.7257 145.708 38.7031C145.515 38.6763 145.321 38.6627 145.126 38.6623H143.744V40.843Z" fill="black"/>
<path d="M151.167 36.8745H153.279V40.8565L157.004 36.8745H159.767L155.501 41.3306L160.133 46.4638H157.18L153.279 41.9129V46.4638H151.167L151.167 36.8745Z" fill="black"/>
<path d="M65.6224 44.1737C65.3408 44.165 65.0742 44.0449 64.8811 43.8398C64.6879 43.6347 64.5841 43.3614 64.5923 43.0798V31.046C64.5841 30.7644 64.6879 30.491 64.8811 30.2859C65.0742 30.0808 65.3408 29.9607 65.6224 29.952C65.904 29.9607 66.1706 30.0808 66.3637 30.2859C66.5569 30.491 66.6607 30.7644 66.6525 31.046V43.0798C66.6607 43.3614 66.5568 43.6347 66.3637 43.8398C66.1706 44.0449 65.904 44.165 65.6224 44.1737ZM62.5321 55.1135C62.2505 55.1048 61.9839 54.9847 61.7908 54.7796C61.5976 54.5745 61.4938 54.3011 61.502 54.0195V21.2002C61.4938 20.9186 61.5976 20.6453 61.7908 20.4402C61.9839 20.2351 62.2505 20.115 62.5321 20.1063C62.8137 20.115 63.0803 20.2351 63.2734 20.4402C63.4665 20.6453 63.5704 20.9186 63.5622 21.2002V54.0195C63.5704 54.3011 63.4665 54.5745 63.2734 54.7796C63.0803 54.9847 62.8137 55.1048 62.5321 55.1135ZM59.4417 47.4556C59.1601 47.4469 58.8935 47.3268 58.7004 47.1217C58.5072 46.9166 58.4034 46.6433 58.4116 46.3617V27.7641C58.4034 27.4825 58.5072 27.2092 58.7004 27.004C58.8935 26.7989 59.1601 26.6788 59.4417 26.6701C59.7233 26.6788 59.9899 26.7989 60.183 27.004C60.3762 27.2092 60.48 27.4825 60.4718 27.7641V46.3617C60.48 46.6433 60.3762 46.9166 60.183 47.1217C59.9899 47.3268 59.7233 47.4469 59.4417 47.4556ZM56.3514 45.2677C56.0698 45.259 55.8032 45.1389 55.6101 44.9338C55.4169 44.7287 55.3131 44.4553 55.3213 44.1737V29.952C55.3131 29.6704 55.4169 29.3971 55.6101 29.192C55.8032 28.9869 56.0698 28.8668 56.3514 28.8581C56.633 28.8668 56.8996 28.9869 57.0927 29.192C57.2858 29.3971 57.3897 29.6704 57.3815 29.952V44.1737C57.3897 44.4553 57.2859 44.7287 57.0928 44.9338C56.8996 45.1389 56.633 45.259 56.3514 45.2677ZM53.2611 47.4556C52.9795 47.4469 52.7129 47.3268 52.5198 47.1217C52.3266 46.9166 52.2228 46.6433 52.231 46.3617V27.7641C52.2228 27.4825 52.3266 27.2092 52.5198 27.004C52.7129 26.7989 52.9795 26.6788 53.2611 26.6701C53.5427 26.6788 53.8093 26.7989 54.0024 27.004C54.1955 27.2092 54.2994 27.4825 54.2912 27.7641V46.3617C54.2994 46.6433 54.1955 46.9166 54.0024 47.1217C53.8093 47.3268 53.5427 47.4469 53.2611 47.4556ZM50.1708 49.6436C49.8892 49.6349 49.6226 49.5148 49.4294 49.3097C49.2363 49.1046 49.1325 48.8312 49.1407 48.5496V25.5762C49.1325 25.2945 49.2363 25.0212 49.4294 24.8161C49.6226 24.611 49.8892 24.4909 50.1708 24.4822C50.4524 24.4909 50.719 24.611 50.9121 24.8161C51.1052 25.0212 51.2091 25.2945 51.2009 25.5762V48.5496C51.2091 48.8312 51.1052 49.1046 50.9121 49.3097C50.719 49.5148 50.4523 49.6349 50.1708 49.6436ZM47.0805 55.1135C46.7989 55.1048 46.5323 54.9847 46.3391 54.7796C46.146 54.5745 46.0422 54.3011 46.0504 54.0195V20.1063C46.0422 19.8247 46.146 19.5513 46.3391 19.3462C46.5323 19.1411 46.7989 19.021 47.0805 19.0123C47.362 19.021 47.6287 19.1411 47.8218 19.3462C48.0149 19.5513 48.1188 19.8247 48.1105 20.1063V54.0195C48.1188 54.3011 48.0149 54.5745 47.8218 54.7795C47.6287 54.9846 47.362 55.1047 47.0805 55.1135ZM43.9902 49.6436C43.7086 49.6349 43.442 49.5148 43.2488 49.3097C43.0557 49.1046 42.9518 48.8312 42.96 48.5496V25.5762C42.9518 25.2945 43.0557 25.0212 43.2488 24.8161C43.4419 24.611 43.7086 24.4909 43.9902 24.4822C44.2717 24.4909 44.5384 24.611 44.7315 24.8161C44.9246 25.0212 45.0285 25.2945 45.0202 25.5762V48.5496C45.0285 48.8312 44.9246 49.1046 44.7315 49.3097C44.5384 49.5148 44.2717 49.6349 43.9902 49.6436ZM40.8998 48.5496C40.6182 48.5409 40.3516 48.4208 40.1585 48.2157C39.9654 48.0106 39.8615 47.7372 39.8697 47.4556V26.6701C39.8615 26.3885 39.9654 26.1152 40.1585 25.9101C40.3516 25.705 40.6182 25.5849 40.8998 25.5762C41.1814 25.5849 41.448 25.705 41.6412 25.9101C41.8343 26.1152 41.9382 26.3885 41.9299 26.6701V47.4556C41.9382 47.7372 41.8343 48.0106 41.6412 48.2157C41.4481 48.4208 41.1814 48.5409 40.8998 48.5496ZM37.8095 57.3015C37.5279 57.2927 37.2613 57.1726 37.0681 56.9675C36.875 56.7624 36.7711 56.489 36.7794 56.2074V17.9183C36.7712 17.6367 36.875 17.3634 37.0682 17.1583C37.2613 16.9532 37.5279 16.8331 37.8095 16.8244C38.091 16.8331 38.3577 16.9532 38.5508 17.1583C38.7439 17.3634 38.8478 17.6368 38.8396 17.9184V56.2074C38.8478 56.4891 38.7439 56.7624 38.5508 56.9675C38.3577 57.1726 38.091 57.2927 37.8095 57.3015ZM34.7192 64.9593C34.4376 64.9505 34.171 64.8304 33.9778 64.6253C33.7847 64.4202 33.6808 64.1469 33.6891 63.8653V10.2605C33.6808 9.9789 33.7847 9.70555 33.9778 9.50044C34.1709 9.29533 34.4376 9.17523 34.7192 9.1665C35.0007 9.17523 35.2674 9.29533 35.4605 9.50044C35.6536 9.70555 35.7575 9.9789 35.7492 10.2605V63.8653C35.7575 64.1469 35.6536 64.4202 35.4605 64.6253C35.2674 64.8304 35.0007 64.9505 34.7192 64.9593ZM31.6289 52.9255C31.3473 52.9168 31.0806 52.7967 30.8875 52.5916C30.6944 52.3865 30.5905 52.1131 30.5987 51.8315V22.2942C30.5905 22.0126 30.6944 21.7393 30.8875 21.5342C31.0806 21.3291 31.3473 21.209 31.6289 21.2002C31.9104 21.209 32.1771 21.3291 32.3702 21.5342C32.5633 21.7393 32.6672 22.0126 32.6589 22.2942V51.8316C32.6672 52.1132 32.5634 52.3865 32.3703 52.5917C32.1772 52.7968 31.9104 52.9167 31.6289 52.9255ZM28.5385 44.1737C28.2569 44.165 27.9903 44.0449 27.7972 43.8398C27.6041 43.6347 27.5002 43.3613 27.5084 43.0797V31.046C27.5002 30.7644 27.6041 30.491 27.7972 30.2859C27.9903 30.0808 28.2569 29.9607 28.5385 29.952C28.8201 29.9607 29.0867 30.0808 29.2799 30.2859C29.473 30.491 29.5768 30.7644 29.5686 31.046V43.0797C29.5769 43.3613 29.473 43.6347 29.2799 43.8398C29.0868 44.0449 28.8201 44.1649 28.5385 44.1737ZM25.4482 48.5496C25.1666 48.5409 24.9 48.4208 24.7069 48.2157C24.5138 48.0106 24.4099 47.7372 24.4181 47.4556V26.6701C24.4099 26.3885 24.5138 26.1152 24.7069 25.9101C24.9 25.705 25.1666 25.5849 25.4482 25.5762C25.7298 25.5849 25.9964 25.705 26.1896 25.9101C26.3827 26.1152 26.4866 26.3885 26.4783 26.6701V47.4556C26.4866 47.7372 26.3827 48.0106 26.1896 48.2157C25.9965 48.4208 25.7298 48.5408 25.4482 48.5496ZM22.3581 52.9257C22.0765 52.917 21.8099 52.7969 21.6167 52.5918C21.4236 52.3867 21.3198 52.1133 21.328 51.8317V22.2942C21.3198 22.0126 21.4236 21.7393 21.6167 21.5342C21.8099 21.3291 22.0765 21.209 22.3581 21.2002C22.6396 21.209 22.9063 21.3291 23.0994 21.5342C23.2925 21.7393 23.3964 22.0126 23.3881 22.2942V51.8316C23.3964 52.1132 23.2926 52.3866 23.0994 52.5917C22.9063 52.7969 22.6397 52.917 22.3581 52.9257Z" fill="#BF8D0A"/>
<path d="M76.4385 37.6096H11.542C11.4012 37.6052 11.2679 37.5451 11.1714 37.4426C11.0749 37.34 11.023 37.2034 11.0271 37.0626C11.023 36.9218 11.0749 36.7852 11.1714 36.6826C11.268 36.5801 11.4012 36.52 11.542 36.5156H76.4385C76.5793 36.52 76.7126 36.58 76.8091 36.6826C76.9057 36.7851 76.9576 36.9218 76.9535 37.0626C76.9576 37.2034 76.9057 37.3401 76.8091 37.4426C76.7126 37.5452 76.5793 37.6052 76.4385 37.6096Z" fill="#BF8D0A"/>
</svg>
