<svg width="180" height="74" viewBox="0 0 180 74" fill="none" xmlns="http://www.w3.org/2000/svg">
<path d="M77.6493 30.0548C77.6392 29.3409 77.7704 28.632 78.0353 27.969C78.2775 27.3683 78.6445 26.8259 79.1121 26.3776C79.5837 25.9329 80.1415 25.5895 80.751 25.3687C82.0926 24.8992 83.5539 24.8992 84.8955 25.3687C85.5049 25.5896 86.0626 25.933 86.5341 26.3776C87.0017 26.8259 87.3687 27.3683 87.6109 27.969C88.1255 29.312 88.1255 30.7977 87.6109 32.1407C87.3687 32.7414 87.0017 33.2838 86.5341 33.7321C86.0627 34.1769 85.505 34.5202 84.8955 34.741C83.5539 35.2105 82.0926 35.2105 80.751 34.741C80.1414 34.5203 79.5836 34.177 79.1121 33.7321C78.6445 33.2838 78.2775 32.7414 78.0353 32.1407C77.7704 31.4777 77.6392 30.7688 77.6493 30.0548ZM79.8434 30.0548C79.8384 30.4772 79.9095 30.897 80.0534 31.2941C80.1858 31.6568 80.3909 31.9886 80.6561 32.2693C80.9214 32.5472 81.2421 32.7664 81.5975 32.9126C82.3857 33.2197 83.2606 33.2197 84.0489 32.9126C84.4042 32.7663 84.7249 32.5471 84.9903 32.2693C85.2554 31.9885 85.4605 31.6567 85.593 31.2941C85.873 30.4939 85.873 29.6224 85.593 28.8222C85.4615 28.4571 85.2564 28.1229 84.9903 27.8404C84.7248 27.5626 84.4041 27.3434 84.0489 27.1968C83.2606 26.8899 82.3858 26.8899 81.5975 27.1968C81.2422 27.3433 80.9215 27.5625 80.6561 27.8404C80.3899 28.1228 80.1847 28.4571 80.0534 28.8222C79.9106 29.2174 79.8396 29.6348 79.8434 30.0548Z" fill="white"/>
<path d="M90.1097 25.2598H93.6718C94.1447 25.2576 94.6166 25.3029 95.0804 25.3952C95.4933 25.4736 95.8867 25.6324 96.2384 25.8625C96.5721 26.0887 96.8426 26.3964 97.024 26.7564C97.2326 27.1982 97.3324 27.6835 97.3152 28.1718C97.3304 28.6556 97.2379 29.1367 97.0442 29.5803C96.8783 29.942 96.6217 30.2545 96.2994 30.4878C95.9614 30.7232 95.5788 30.8868 95.1752 30.9687C94.7121 31.0666 94.2399 31.1142 93.7666 31.1109H92.2226V34.8491H90.1097V25.2598ZM92.2226 29.323H93.6312C93.8154 29.3236 93.9992 29.3054 94.1797 29.2688C94.3473 29.2362 94.5078 29.1744 94.6538 29.086C94.7946 28.9992 94.9111 28.878 94.9924 28.7339C95.0839 28.5611 95.1283 28.3672 95.1211 28.1718C95.1312 27.9621 95.0717 27.755 94.9517 27.5827C94.8383 27.4332 94.6892 27.3145 94.5182 27.2373C94.3318 27.1532 94.1327 27.1006 93.9291 27.0815C93.7221 27.0595 93.5142 27.0482 93.306 27.0476H92.2226L92.2226 29.323Z" fill="white"/>
<path d="M99.4009 25.2598H105.916V27.21H101.514V28.998H105.672V30.9482H101.514V32.8987H106.159V34.849H99.4009V25.2598Z" fill="white"/>
<path d="M108.53 25.2598H111.401L115.478 31.9235H115.505V25.2598H117.618V34.849H114.855L110.67 28.0229H110.643V34.849H108.53L108.53 25.2598Z" fill="white"/>
<path d="M123.983 25.2598H126.395L128.764 31.5441H128.791L131.202 25.2598H133.464L129.509 34.849H127.816L123.983 25.2598Z" fill="white"/>
<path d="M134.629 30.0544C134.619 29.3404 134.75 28.6315 135.015 27.9685C135.257 27.3678 135.624 26.8254 136.091 26.3772C136.563 25.9323 137.121 25.589 137.73 25.3683C139.072 24.8987 140.533 24.8987 141.875 25.3683C142.484 25.5891 143.042 25.9325 143.514 26.3772C143.981 26.8255 144.348 27.3679 144.59 27.9685C145.105 29.3115 145.105 30.7973 144.59 32.1402C144.348 32.7408 143.981 33.2832 143.514 33.7316C143.042 34.1764 142.484 34.5197 141.875 34.7405C140.533 35.21 139.072 35.21 137.73 34.7405C137.121 34.5199 136.563 34.1765 136.091 33.7316C135.624 33.2833 135.257 32.7409 135.015 32.1402C134.75 31.4772 134.619 30.7683 134.629 30.0544ZM136.823 30.0544C136.818 30.4767 136.889 30.8965 137.033 31.2936C137.165 31.6564 137.37 31.9882 137.636 32.2688C137.901 32.5467 138.222 32.7659 138.577 32.9121C139.365 33.2192 140.24 33.2192 141.028 32.9121C141.384 32.7659 141.704 32.5467 141.97 32.2688C142.235 31.988 142.44 31.6562 142.573 31.2936C142.853 30.4934 142.853 29.6219 142.573 28.8218C142.441 28.4567 142.236 28.1225 141.97 27.8399C141.704 27.562 141.384 27.3428 141.028 27.1963C140.24 26.8894 139.365 26.8894 138.577 27.1963C138.222 27.3428 137.901 27.5621 137.636 27.8399C137.369 28.1223 137.164 28.4565 137.033 28.8218C136.89 29.2168 136.819 29.6343 136.823 30.0544Z" fill="white"/>
<path d="M147.062 25.2598H149.175V34.849H147.062V25.2598Z" fill="white"/>
<path d="M158.047 27.7519C157.841 27.5005 157.579 27.301 157.281 27.1695C156.95 27.0284 156.592 26.9591 156.232 26.9664C155.858 26.9623 155.487 27.0382 155.145 27.1889C154.803 27.3395 154.497 27.5615 154.248 27.84C153.992 28.127 153.795 28.4603 153.665 28.8219C153.385 29.622 153.385 30.4935 153.665 31.2937C153.795 31.6517 153.99 31.9824 154.241 32.2689C154.48 32.5407 154.772 32.7598 155.101 32.9122C155.434 33.0666 155.797 33.1453 156.164 33.1426C156.565 33.1505 156.961 33.0573 157.316 32.8716C157.649 32.6911 157.933 32.4305 158.141 32.1132L159.902 33.427C159.514 33.9814 158.979 34.4174 158.358 34.6866C157.752 34.9539 157.097 35.0923 156.435 35.0929C155.729 35.1004 155.027 34.9811 154.363 34.7408C153.753 34.5202 153.195 34.1768 152.724 33.7319C152.256 33.2837 151.889 32.7412 151.647 32.1405C151.132 30.7977 151.132 29.3117 151.647 27.9688C151.889 27.3681 152.256 26.8257 152.724 26.3775C153.195 25.9327 153.753 25.5893 154.363 25.3686C155.027 25.1283 155.729 25.009 156.435 25.0164C156.719 25.0176 157.002 25.0425 157.282 25.0908C157.577 25.1413 157.868 25.2207 158.148 25.3278C158.438 25.4389 158.713 25.5845 158.968 25.7613C159.234 25.9463 159.472 26.17 159.672 26.425L158.047 27.7519Z" fill="white"/>
<path d="M161.812 25.2598H168.327V27.21H163.925V28.998H168.083V30.9482H163.925V32.8987H168.57V34.849H161.812V25.2598Z" fill="white"/>
<path d="M86.0872 37.4937H88.9585L93.0353 44.1574H93.0625V37.4937H95.1754V47.0829H92.4124L88.2272 40.2566H88.2002V47.0829H86.0872V37.4937Z" fill="white"/>
<path d="M97.8839 37.4937H104.399V39.444H99.9968V41.2318H104.155V43.1822H99.9968V45.1326H104.642V47.0829H97.8839V37.4937Z" fill="white"/>
<path d="M108.868 39.3628H106.132V37.4937H113.717V39.3628H110.981V47.0829H108.868L108.868 39.3628Z" fill="white"/>
<path d="M114.462 37.4937H116.764L118.295 43.6427H118.322L120.326 37.4937H122.29L124.281 43.8052H124.309L125.92 37.4937H128.06L125.256 47.0829H123.374L121.261 40.4462H121.234L119.121 47.0829H117.306L114.462 37.4937Z" fill="white"/>
<path d="M129.171 42.2883C129.161 41.5743 129.292 40.8654 129.557 40.2024C129.799 39.6017 130.166 39.0593 130.634 38.611C131.105 38.1662 131.663 37.8229 132.272 37.6021C133.614 37.1326 135.075 37.1326 136.417 37.6021C137.026 37.823 137.584 38.1664 138.056 38.611C138.523 39.0594 138.89 39.6018 139.133 40.2024C139.647 41.5454 139.647 43.0312 139.133 44.3741C138.89 44.9748 138.523 45.5172 138.056 45.9655C137.584 46.4103 137.027 46.7537 136.417 46.9744C135.075 47.4439 133.614 47.4439 132.272 46.9744C131.663 46.7538 131.105 46.4104 130.634 45.9655C130.166 45.5172 129.799 44.9748 129.557 44.3741C129.292 43.7111 129.161 43.0022 129.171 42.2883ZM131.365 42.2883C131.36 42.7106 131.431 43.1304 131.575 43.5275C131.707 43.8903 131.912 44.2221 132.178 44.5027C132.443 44.7806 132.764 44.9998 133.119 45.146C133.907 45.4531 134.782 45.4531 135.57 45.146C135.926 44.9998 136.247 44.7806 136.512 44.5027C136.777 44.2219 136.982 43.8901 137.115 43.5275C137.395 42.7273 137.395 41.8558 137.115 41.0557C136.983 40.6906 136.778 40.3564 136.512 40.0738C136.246 39.7959 135.926 39.5767 135.57 39.4302C134.782 39.1233 133.907 39.1233 133.119 39.4302C132.764 39.5767 132.443 39.796 132.178 40.0738C131.911 40.3562 131.706 40.6904 131.575 41.0557C131.432 41.4508 131.361 41.8682 131.365 42.2883Z" fill="white"/>
<path d="M141.631 37.4937H145.342C145.809 37.4916 146.274 37.5392 146.731 37.6359C147.141 37.7194 147.532 37.8803 147.882 38.11C148.216 38.3363 148.486 38.6439 148.668 39.0039C148.875 39.4412 148.975 39.9218 148.959 40.4057C148.977 41.0237 148.792 41.6306 148.431 42.1326C148.053 42.6223 147.499 42.9454 146.886 43.0333L149.324 47.083H146.792L144.787 43.25H143.744V47.083H141.631L141.631 37.4937ZM143.744 41.4621H144.99C145.18 41.4621 145.381 41.4554 145.593 41.4419C145.79 41.4316 145.984 41.3904 146.168 41.3199C146.337 41.2545 146.484 41.1445 146.595 41.0016C146.718 40.8231 146.778 40.6085 146.765 40.3921C146.775 40.1874 146.723 39.9843 146.616 39.8097C146.52 39.6685 146.389 39.5542 146.236 39.4778C146.07 39.3974 145.891 39.3448 145.708 39.3222C145.515 39.2955 145.32 39.2818 145.126 39.2815H143.744L143.744 41.4621Z" fill="white"/>
<path d="M151.166 37.4937H153.279V41.4756L157.004 37.4937H159.767L155.501 41.9497L160.133 47.0828H157.18L153.279 42.532V47.0829H151.166V37.4937Z" fill="white"/>
<path d="M65.6224 44.7924C65.3408 44.7837 65.0742 44.6636 64.8811 44.4585C64.6879 44.2534 64.5841 43.98 64.5923 43.6984V31.6647C64.5841 31.383 64.6879 31.1097 64.8811 30.9046C65.0742 30.6995 65.3408 30.5794 65.6224 30.5707C65.904 30.5794 66.1706 30.6995 66.3637 30.9046C66.5569 31.1097 66.6607 31.3831 66.6525 31.6647V43.6984C66.6607 43.98 66.5569 44.2534 66.3637 44.4585C66.1706 44.6636 65.904 44.7836 65.6224 44.7924ZM62.5321 55.7321C62.2505 55.7234 61.9839 55.6033 61.7908 55.3982C61.5976 55.1931 61.4938 54.9197 61.502 54.6381V21.8189C61.4938 21.5373 61.5976 21.2639 61.7908 21.0588C61.9839 20.8537 62.2505 20.7336 62.5321 20.7249C62.8137 20.7336 63.0803 20.8537 63.2734 21.0588C63.4665 21.2639 63.5704 21.5373 63.5622 21.8189V54.6381C63.5704 54.9198 63.4665 55.1931 63.2734 55.3982C63.0803 55.6033 62.8137 55.7234 62.5321 55.7321ZM59.4417 48.0743C59.1601 48.0656 58.8935 47.9455 58.7004 47.7404C58.5073 47.5353 58.4034 47.2619 58.4116 46.9803V28.3827C58.4034 28.1011 58.5073 27.8278 58.7004 27.6227C58.8935 27.4176 59.1601 27.2975 59.4417 27.2888C59.7233 27.2975 59.9899 27.4176 60.183 27.6227C60.3761 27.8278 60.48 28.1011 60.4718 28.3827V46.9803C60.48 47.2619 60.3762 47.5353 60.183 47.7404C59.9899 47.9455 59.7233 48.0656 59.4417 48.0743ZM56.3514 45.8863C56.0698 45.8776 55.8032 45.7575 55.6101 45.5524C55.4169 45.3473 55.3131 45.074 55.3213 44.7924V30.5707C55.3131 30.2891 55.4169 30.0157 55.6101 29.8106C55.8032 29.6055 56.0698 29.4854 56.3514 29.4767C56.633 29.4854 56.8996 29.6055 57.0927 29.8106C57.2859 30.0157 57.3897 30.2891 57.3815 30.5707V44.7924C57.3897 45.074 57.2859 45.3473 57.0928 45.5524C56.8996 45.7575 56.633 45.8776 56.3514 45.8863ZM53.2611 48.0743C52.9795 48.0656 52.7129 47.9455 52.5198 47.7404C52.3266 47.5353 52.2228 47.2619 52.231 46.9803V28.3827C52.2228 28.1011 52.3266 27.8278 52.5198 27.6227C52.7129 27.4176 52.9795 27.2975 53.2611 27.2888C53.5427 27.2975 53.8093 27.4176 54.0024 27.6227C54.1955 27.8278 54.2994 28.1011 54.2912 28.3827V46.9803C54.2994 47.2619 54.1956 47.5353 54.0024 47.7404C53.8093 47.9455 53.5427 48.0656 53.2611 48.0743ZM50.1708 50.2623C49.8892 50.2535 49.6226 50.1334 49.4295 49.9283C49.2363 49.7232 49.1325 49.4499 49.1407 49.1683V26.1948C49.1325 25.9132 49.2363 25.6398 49.4294 25.4347C49.6226 25.2296 49.8892 25.1095 50.1708 25.1008C50.4524 25.1095 50.719 25.2296 50.9121 25.4347C51.1052 25.6398 51.2091 25.9132 51.2009 26.1948V49.1684C51.2091 49.4499 51.1052 49.7233 50.9121 49.9284C50.719 50.1334 50.4523 50.2535 50.1708 50.2623ZM47.0805 55.7321C46.7989 55.7234 46.5323 55.6033 46.3391 55.3982C46.146 55.1931 46.0422 54.9197 46.0504 54.6381V20.7249C46.0422 20.4433 46.146 20.17 46.3391 19.9649C46.5323 19.7598 46.7989 19.6397 47.0805 19.631C47.3621 19.6397 47.6287 19.7598 47.8218 19.9649C48.0149 20.17 48.1188 20.4433 48.1106 20.7249V54.6381C48.1188 54.9197 48.0149 55.1931 47.8218 55.3982C47.6287 55.6033 47.362 55.7234 47.0805 55.7321ZM43.9902 50.2623C43.7086 50.2535 43.442 50.1335 43.2488 49.9284C43.0557 49.7233 42.9518 49.4499 42.96 49.1683V26.1948C42.9518 25.9132 43.0557 25.6398 43.2488 25.4347C43.442 25.2296 43.7086 25.1095 43.9902 25.1008C44.2718 25.1095 44.5384 25.2296 44.7315 25.4347C44.9246 25.6398 45.0285 25.9132 45.0203 26.1948V49.1684C45.0284 49.4499 44.9246 49.7233 44.7315 49.9283C44.5384 50.1334 44.2717 50.2535 43.9902 50.2623ZM40.8998 49.1683C40.6182 49.1596 40.3516 49.0395 40.1585 48.8344C39.9654 48.6293 39.8615 48.3559 39.8697 48.0743V27.2888C39.8615 27.0072 39.9654 26.7338 40.1585 26.5287C40.3516 26.3236 40.6183 26.2035 40.8998 26.1948C41.1814 26.2035 41.448 26.3236 41.6412 26.5287C41.8343 26.7338 41.9382 27.0072 41.93 27.2888V48.0743C41.9382 48.3559 41.8343 48.6293 41.6412 48.8344C41.4481 49.0395 41.1814 49.1596 40.8998 49.1683ZM37.8095 57.9201C37.5279 57.9114 37.2613 57.7913 37.0681 57.5862C36.875 57.3811 36.7712 57.1077 36.7794 56.8261V18.537C36.7712 18.2554 36.875 17.982 37.0681 17.7769C37.2613 17.5718 37.5279 17.4517 37.8095 17.443C38.091 17.4517 38.3577 17.5718 38.5508 17.7769C38.7439 17.982 38.8478 18.2554 38.8396 18.537V56.8261C38.8478 57.1077 38.7439 57.3811 38.5508 57.5862C38.3577 57.7913 38.0911 57.9114 37.8095 57.9201ZM34.7192 65.5779C34.4376 65.5692 34.171 65.4491 33.9778 65.244C33.7847 65.0389 33.6809 64.7655 33.6891 64.4839V10.8792C33.6809 10.5976 33.7847 10.3242 33.9778 10.1191C34.171 9.91398 34.4376 9.79388 34.7192 9.78516C35.0007 9.79388 35.2674 9.91398 35.4605 10.1191C35.6536 10.3242 35.7575 10.5976 35.7493 10.8792V64.4839C35.7575 64.7655 35.6536 65.0389 35.4605 65.2439C35.2674 65.449 35.0007 65.5692 34.7192 65.5779ZM31.6289 53.5442C31.3473 53.5354 31.0807 53.4153 30.8875 53.2102C30.6944 53.0051 30.5905 52.7318 30.5987 52.4502V22.9129C30.5905 22.6313 30.6944 22.3579 30.8875 22.1528C31.0807 21.9477 31.3473 21.8276 31.6289 21.8189C31.9104 21.8276 32.1771 21.9477 32.3702 22.1528C32.5633 22.3579 32.6672 22.6313 32.6589 22.9129V52.4502C32.6672 52.7318 32.5633 53.0051 32.3702 53.2102C32.1771 53.4153 31.9104 53.5354 31.6289 53.5442ZM28.5385 44.7923C28.2569 44.7836 27.9903 44.6635 27.7972 44.4584C27.6041 44.2533 27.5002 43.98 27.5084 43.6984V31.6646C27.5002 31.383 27.6041 31.1097 27.7972 30.9046C27.9903 30.6994 28.2569 30.5793 28.5385 30.5706C28.8201 30.5793 29.0867 30.6994 29.2799 30.9046C29.473 31.1097 29.5769 31.383 29.5686 31.6646V43.6984C29.5769 43.98 29.473 44.2533 29.2799 44.4584C29.0868 44.6635 28.8201 44.7836 28.5385 44.7923ZM25.4484 49.1684C25.1668 49.1596 24.9002 49.0395 24.707 48.8344C24.5139 48.6293 24.4101 48.356 24.4183 48.0744V27.2888C24.4101 27.0072 24.5139 26.7338 24.707 26.5287C24.9002 26.3236 25.1668 26.2035 25.4484 26.1948C25.7299 26.2035 25.9966 26.3236 26.1897 26.5287C26.3828 26.7338 26.4867 27.0072 26.4785 27.2888V48.0743C26.4867 48.3559 26.3828 48.6293 26.1897 48.8344C25.9966 49.0395 25.73 49.1596 25.4484 49.1684ZM22.3581 53.5443C22.0765 53.5355 21.8099 53.4154 21.6167 53.2103C21.4236 53.0052 21.3198 52.7319 21.328 52.4503V22.9129C21.3198 22.6313 21.4236 22.3579 21.6167 22.1528C21.8099 21.9477 22.0765 21.8276 22.3581 21.8189C22.6396 21.8276 22.9063 21.9477 23.0994 22.1528C23.2925 22.3579 23.3964 22.6313 23.3882 22.9129V52.4502C23.3964 52.7318 23.2925 53.0052 23.0994 53.2103C22.9063 53.4154 22.6396 53.5355 22.3581 53.5443Z" fill="white"/>
<path d="M76.4385 38.2283H11.542C11.4012 38.2239 11.2679 38.1638 11.1714 38.0612C11.0749 37.9587 11.023 37.8221 11.0271 37.6813C11.023 37.5405 11.0749 37.4039 11.1714 37.3013C11.2679 37.1988 11.4012 37.1387 11.542 37.1343H76.4385C76.5793 37.1386 76.7126 37.1987 76.8091 37.3012C76.9057 37.4038 76.9576 37.5405 76.9535 37.6813C76.9576 37.8221 76.9057 37.9588 76.8092 38.0613C76.7126 38.1639 76.5793 38.2239 76.4385 38.2283Z" fill="white"/>
</svg>
